<?xml version="1.0" encoding="utf-8"?>
<!-- Generator: Adobe Illustrator 23.0.1, SVG Export Plug-In . SVG Version: 6.00 Build 0)  -->
<svg version="1.1" id="Layer_1" xmlns="http://www.w3.org/2000/svg" xmlns:xlink="http://www.w3.org/1999/xlink" x="0px" y="0px"
	 viewBox="0 0 4500 5400" style="enable-background:new 0 0 4500 5400;" xml:space="preserve">
<style type="text/css">
	.st0{fill:#666666;}
</style>
<path class="st0" d="M4496.95,2998.61c1.02-2.86,1.17-5.67,1.58-8.68c0.37-2.72,1.62-5.23,1.46-8.02l-49.02-824.13
	c-0.67-11.32-5.83-21.93-14.31-29.42L2278.21,225.04c-0.25-0.23-0.58-0.3-0.85-0.51c-0.23-0.19-0.33-0.46-0.56-0.65
	c-1.71-1.38-3.77-2-5.62-3.08c-2.29-1.33-4.43-2.9-6.87-3.77c-2-0.71-4.08-0.8-6.16-1.21c-2.79-0.55-5.51-1.28-8.34-1.27
	c-1.83,0.01-3.6,0.58-5.41,0.83c-3.02,0.41-6.03,0.68-8.93,1.74c-2.08,0.75-3.87,2.13-5.85,3.21c-2.14,1.19-4.47,1.95-6.43,3.54
	c-0.23,0.19-0.33,0.46-0.56,0.66c-0.27,0.22-0.6,0.29-0.85,0.51L63.43,2128.35c-8.49,7.49-13.65,18.1-14.31,29.42L0.02,2981.9
	c-0.17,2.79,1.08,5.3,1.46,8.02c0.42,3.01,0.56,5.83,1.58,8.68c1.41,3.93,3.75,7.13,6.24,10.5c1.35,1.84,1.79,4.17,3.45,5.79
	l2207.46,2158.4c3.6,3.5,7.82,5.97,12.21,7.97c0.42,0.19,0.6,0.67,1.02,0.85c0.12,0.05,0.27,0.03,0.4,0.08
	c5.14,2.11,10.63,3.25,16.17,3.25s11.03-1.14,16.17-3.25c0.12-0.05,0.27-0.03,0.4-0.08c0.42-0.18,0.6-0.66,1.02-0.85
	c4.39-2.01,8.61-4.47,12.21-7.97l2207.46-2158.4c1.66-1.62,2.1-3.95,3.45-5.79C4493.2,3005.74,4495.53,3002.53,4496.95,2998.61z
	 M4366.99,2180.53l44.28,745.45l-733.88-221.63l-5.49-1.66L2409.96,454.86L4366.99,2180.53z M2250,3542.69l-1335.91-819.1
	L2250,343.96l1335.97,2379.62L2250,3542.69z M637.23,2849.35l213.68-64.53l1356.48,831.71v1425.06L123.85,3004.38L637.23,2849.35z
	 M133.09,2180.53L2090.04,454.86L828.19,2702.68l-26.55,8.02l-712.9,215.28L133.09,2180.53z M2292.61,3616.53l1356.57-831.71
	l224.83,67.91l502.14,151.65L2292.61,5041.59V3616.53z"/>
</svg>
