<?xml version="1.0" encoding="utf-8"?>
<!-- Generator: Adobe Illustrator 23.0.1, SVG Export Plug-In . SVG Version: 6.00 Build 0)  -->
<svg version="1.1" id="Layer_1" xmlns="http://www.w3.org/2000/svg" xmlns:xlink="http://www.w3.org/1999/xlink" x="0px" y="0px"
	 viewBox="0 0 4500 5400" style="enable-background:new 0 0 4500 5400;" xml:space="preserve">
<style type="text/css">
	.st0{fill:#666666;}
</style>
<path class="st0" d="M4499.05,1995.75c-0.3-3.42-1.25-6.48-2.34-9.74c-1.12-3.36-2.26-6.47-4.15-9.46
	c-0.71-1.13-0.77-2.54-1.59-3.62L3611.63,820.57c-5.25-6.88-12.38-12.08-20.55-14.88L2264.4,345.73c-1.42-0.48-2.86-0.08-4.3-0.41
	c-3.44-0.83-6.73-1-10.28-0.98c-3.55,0.01-6.84,0.18-10.23,1.02c-1.42,0.34-2.88-0.05-4.26,0.42L888.98,820.1
	c-8.17,2.88-15.31,8.08-20.55,15.01L8.86,1973.11c-0.82,1.1-0.88,2.53-1.59,3.69c-1.81,2.91-2.88,5.92-3.98,9.18
	c-1.14,3.38-2.09,6.55-2.39,10.09c-0.11,1.33-0.9,2.48-0.9,3.83l8.86,1440.48c0.09,9.72,3.35,19.18,9.29,26.83l858.36,1100.17
	c0.52,0.66,1.35,0.91,1.89,1.54c2.02,2.3,4.54,3.8,6.97,5.64c3.01,2.26,5.8,4.51,9.29,5.94c0.8,0.33,1.33,1.09,2.15,1.37
	l1352.81,471.36c4.64,1.63,9.54,2.45,14.45,2.45c4.99,0,9.97-0.86,14.79-2.54l1324.69-471.36c0.82-0.3,1.33-1.05,2.15-1.39
	c3.27-1.38,5.91-3.57,8.77-5.71c2.58-1.94,5.22-3.54,7.31-5.98c0.56-0.62,1.38-0.88,1.89-1.54l867.22-1125.97
	c5.93-7.7,9.12-17.16,9.12-26.87V1999.64C4500,1998.26,4499.18,1997.1,4499.05,1995.75z M3056.75,3824.45H1443.25L902.41,2284.2
	l1347.54-1011.28L3597.59,2284.2L3056.75,3824.45z M4383.57,1977.36L3657.8,2219.3L2293.98,1195.88v-746.7L3549.71,884.5
	L4383.57,1977.36z M930.77,898.73l1275.16-449.26v746.4L842.2,2219.3l-726.11-242.06L930.77,898.73z M88.4,2060.86l727.4,242.45
	l546.99,1557.64l-452.31,606.75L96.83,3424.85L88.4,2060.86z M2263.89,4964.95L982.45,4518.44l451.71-605.94h1631.68l451.97,606.28
	L2263.89,4964.95z M4411.95,3399.31l-822.59,1068.1l-452.14-606.45l546.99-1557.64l727.74-242.58V3399.31z"/>
</svg>
