<?xml version="1.0" encoding="utf-8"?>
<!-- Generator: Adobe Illustrator 23.0.1, SVG Export Plug-In . SVG Version: 6.00 Build 0)  -->
<svg version="1.1" id="Layer_1" xmlns="http://www.w3.org/2000/svg" xmlns:xlink="http://www.w3.org/1999/xlink" x="0px" y="0px"
	 viewBox="0 0 4500 5400" style="enable-background:new 0 0 4500 5400;" xml:space="preserve">
<style type="text/css">
	.st0{fill:#ebebeb;}
</style>
<path class="st0" d="M4499.65,1408.06c-0.02-0.97,0.05-1.9-0.05-2.86c-0.07-0.79-0.45-1.48-0.55-2.26
	c-0.22-1.56-0.74-3.03-1.12-4.55c-0.57-2.34-0.79-4.72-1.66-6.93c-1.02-2.55-2.6-4.76-4.01-7.12c-0.5-0.86-0.42-1.91-0.99-2.75
	c-0.35-0.53-0.99-0.72-1.36-1.23c-0.77-1.04-1.29-2.19-2.13-3.17c-2.3-2.71-5.28-4.81-8.15-7.02c-1.64-1.25-2.97-2.82-4.76-3.87
	c-0.25-0.14-0.4-0.38-0.64-0.52L2274.93,125.22c-4.21-2.35-8.95-2.4-13.51-3.48c-3.89-0.93-7.51-2.96-11.47-2.96
	c-3.97-0.01-7.58,2.03-11.47,2.96c-4.56,1.08-9.29,1.13-13.51,3.48L25.77,1365.78c-0.25,0.14-0.4,0.38-0.64,0.52
	c-1.78,1.05-3.12,2.61-4.76,3.87c-2.87,2.21-5.85,4.31-8.15,7.02c-0.84,0.98-1.36,2.13-2.13,3.17c-0.37,0.51-1.02,0.71-1.36,1.23
	c-0.57,0.84-0.5,1.89-0.99,2.75c-1.41,2.36-3,4.57-4.01,7.12c-0.87,2.21-1.09,4.59-1.66,6.93c-0.37,1.52-0.89,2.99-1.12,4.55
	c-0.1,0.78-0.47,1.47-0.55,2.26c-0.1,0.96-0.02,1.9-0.05,2.86C0.32,1408.73,0,1409.32,0,1410v2551.7c0,8.02,2.01,15.74,5.5,22.71
	c0.15,0.3,0.3,0.58,0.45,0.88c3.64,6.91,8.8,13.04,15.37,17.7c0.64,0.46,1.51,0.27,2.18,0.7c0.79,0.51,1.07,1.5,1.88,1.98
	l2199.2,1268.76c0.67,0.38,1.46,0.22,2.13,0.57c7.29,3.79,15.12,6.22,23.25,6.22s15.96-2.43,23.25-6.22
	c0.67-0.35,1.46-0.19,2.13-0.57l2199.29-1268.76c0.82-0.48,1.09-1.46,1.88-1.98c0.67-0.43,1.54-0.24,2.18-0.7
	c6.57-4.67,11.72-10.79,15.37-17.7c0.15-0.3,0.3-0.58,0.45-0.88c3.49-6.96,5.5-14.69,5.5-22.71V1410
	C4500,1409.32,4499.68,1408.73,4499.65,1408.06z M2300.7,256.32l1955.24,1102.92H2300.7V256.32z M4374.1,1460.75l-835.37,2075.23
	l-85.13-147.13l-1115.63-1928.1H4374.1z M2249.95,1511.36l1208.99,2089.41H1041.06L2249.95,1511.36z M2199.2,256.32v1102.92H244.06
	L2199.2,256.32z M2161.92,1460.75L1146.04,3216.62l-184.78,319.36L125.89,1460.75H2161.92z M101.51,1672l7.78,19.34L886,3620.89
	l-784.49,269.68V1672z M172.68,3973.44L936.18,3711l1097.47,1336.07L172.68,3973.44z M2249.95,5150.45L1060.44,3702.27h2379.12
	L2249.95,5150.45z M2466.25,5047.07L3563.82,3711l763.5,262.45L2466.25,5047.07z M4398.49,3890.57L3614,3620.89l776.71-1929.56
	l7.78-19.34V3890.57z"/>
</svg>
