<?xml version="1.0" encoding="utf-8"?>
<!-- Generator: Adobe Illustrator 24.2.0, SVG Export Plug-In . SVG Version: 6.00 Build 0)  -->
<svg version="1.1" id="Layer_1" xmlns="http://www.w3.org/2000/svg" xmlns:xlink="http://www.w3.org/1999/xlink" x="0px" y="0px"
	 viewBox="0 0 4500 5400" style="enable-background:new 0 0 4500 5400;" xml:space="preserve">
<style type="text/css">
	.st0{fill:#666666;}
</style>
<path class="st0" d="M2899.1,2691.7L2249,1570.1l-634.6,1096.7l-556.6,962.7h2383.4L2899.1,2691.7z M2327.4,2993.5
	c0,71.7-24.5,107.5-73.5,107.5c-21.8,0-39.4-7.3-52.6-21.9c-13.3-14.6-19.9-36.2-19.9-64.7V2528c-90.6,69.3-151.6,104-183,104
	c-15,0-28.3-6-39.9-17.9s-17.4-25.7-17.4-41.4c0-18.2,5.7-31.5,17.1-40.1c11.4-8.5,31.6-19.6,60.5-33.1
	c43.2-20.3,77.7-41.7,103.5-64.1c25.9-22.4,48.8-47.6,68.8-75.4c20-27.8,33.1-44.9,39.2-51.3c6.1-6.4,17.5-9.6,34.4-9.6
	c19,0,34.2,7.3,45.6,21.9c11.5,14.6,17.2,34.8,17.2,60.4L2327.4,2993.5L2327.4,2993.5z"/>
<polygon class="st0" points="820.4,3660.6 0,3942.1 0,1622 "/>
<polygon class="st0" points="897.3,3798.8 2057.4,5211.2 89.3,4077.1 "/>
<polygon class="st0" points="115.3,1492.2 935.7,3529.8 1350.1,2813.2 2114.4,1492.2 "/>
<polygon class="st0" points="2171.6,1336.4 138.1,1336.4 2171.6,188.8 "/>
<polygon class="st0" points="4361.9,1336.4 2327.4,1336.4 2327.4,188.8 "/>
<polygon class="st0" points="3411.6,3785.3 2249.5,5199.8 1087.3,3785.3 "/>
<polygon class="st0" points="2384.5,1492.2 4384.7,1492.2 3564.3,3529.8 3300.5,3073.9 "/>
<polygon class="st0" points="3602.7,3798.8 4410.7,4077.1 2441.6,5211.2 "/>
<polygon class="st0" points="4500,1622 4500,3943.1 3679.5,3660.6 "/>
</svg>
