<?xml version="1.0" encoding="utf-8"?>
<!-- Generator: Adobe Illustrator 23.0.1, SVG Export Plug-In . SVG Version: 6.00 Build 0)  -->
<svg version="1.1" id="Layer_1" xmlns="http://www.w3.org/2000/svg" xmlns:xlink="http://www.w3.org/1999/xlink" x="0px" y="0px"
	 viewBox="0 0 4500 5400" style="enable-background:new 0 0 4500 5400;" xml:space="preserve">
<style type="text/css">
	.st0{fill:#666666;}
</style>
<path class="st0" d="M4490.99,3224.67l-2213-2551.35c-2.09-2.44-5.29-3.09-7.87-4.85c-2.51-1.75-4.19-4.45-7.15-5.55
	c-0.67-0.25-1.37,0.1-2.06-0.11c-3.48-1.09-6.95-0.55-10.62-0.58c-3.86-0.02-7.46-0.56-11.12,0.59c-0.69,0.21-1.39-0.14-2.06,0.11
	c-2.96,1.11-4.66,3.81-7.17,5.57c-2.58,1.76-5.76,2.4-7.85,4.83L9.01,3224.67c-7.01,8.05-10.11,18.74-8.67,29.32
	c1.44,10.54,7.44,19.97,16.32,25.82l2213.07,1452.03c0.47,0.3,1.05,0.18,1.52,0.46c0.51,0.3,0.72,0.89,1.23,1.17
	c5.49,2.96,11.56,4.44,17.55,4.44s12.06-1.48,17.55-4.44c0.51-0.28,0.72-0.87,1.23-1.17c0.47-0.28,1.05-0.15,1.52-0.46l2213-1452.03
	c8.88-5.85,14.88-15.27,16.32-25.82C4501.1,3243.42,4497.99,3232.73,4490.99,3224.67z M2213.06,796.6v3835.83L92.57,3241.18
	L2213.06,796.6z M2287.01,4632.44V796.6l2120.42,2444.57L2287.01,4632.44z"/>
</svg>
