<?xml version="1.0" encoding="utf-8"?>
<!-- Generator: Adobe Illustrator 23.0.1, SVG Export Plug-In . SVG Version: 6.00 Build 0)  -->
<svg version="1.1" id="Layer_1" xmlns="http://www.w3.org/2000/svg" xmlns:xlink="http://www.w3.org/1999/xlink" x="0px" y="0px"
	 viewBox="0 0 4500 5400" style="enable-background:new 0 0 4500 5400;" xml:space="preserve">
<style type="text/css">
	.st0{fill:#666666;}
</style>
<path class="st0" d="M4496.67,1478.39c-0.9-2.92-0.82-6.11-2.32-8.77c-3.07-5.54-7.87-9.87-13.09-13.68
	c-0.99-0.73-1.44-1.96-2.49-2.6l-0.11-0.07c-0.02-0.02-0.04-0.04-0.06-0.06s-0.06-0.01-0.09-0.02L2272.78,117
	c-13.93-8.51-31.63-8.51-45.56,0L21.49,1453.18c-0.02,0.02-0.06,0.01-0.09,0.02s-0.04,0.04-0.06,0.06l-0.11,0.07
	c-1.05,0.64-1.5,1.88-2.49,2.6c-5.22,3.81-10.01,8.14-13.09,13.68c-1.5,2.66-1.42,5.86-2.32,8.77c-1.31,4.17-3.33,8.11-3.33,12.59
	v2567.62c0,16.2,8.85,31.07,23.12,38.77l2205.99,1186.76c6.53,3.48,13.75,5.24,20.89,5.24s14.36-1.76,20.89-5.24l2205.99-1186.76
	c14.27-7.69,23.12-22.56,23.12-38.77V1490.98C4500,1486.5,4497.98,1482.56,4496.67,1478.39z M2205.99,5171.7L88.02,4032.3V1564.67
	l2117.97,1139.41V5171.7z M2250,2627.74L132.72,1488.71L2250,206.1l2117.28,1282.61L2250,2627.74z M4411.98,4032.3L2294.01,5171.7
	V2704.08l2117.97-1139.41V4032.3z"/>
</svg>
