<?xml version="1.0" encoding="utf-8"?>
<!-- Generator: Adobe Illustrator 23.0.1, SVG Export Plug-In . SVG Version: 6.00 Build 0)  -->
<svg version="1.1" id="Layer_1" xmlns="http://www.w3.org/2000/svg" xmlns:xlink="http://www.w3.org/1999/xlink" x="0px" y="0px"
	 viewBox="0 0 4500 5400" style="enable-background:new 0 0 4500 5400;" xml:space="preserve">
<style type="text/css">
	.st0{fill:#666666;}
</style>
<path class="st0" d="M4500,1415.18c0-17.42-9.26-33.51-24.25-42.25L2274.68,91.67c-2.96-1.71-6.35-0.87-9.5-1.91
	c-5.2-1.78-9.79-3.1-15.28-3.07c-5.35-0.01-9.81,1.29-14.87,3.02c-3.17,1.06-6.61,0.22-9.62,1.96L24.25,1372.93
	C9.26,1381.67,0,1397.76,0,1415.18V3946.4c0,0.51,0.24,0.96,0.24,1.47c0.1,2.98,0.84,5.78,1.46,8.66c0.5,2.28,0.69,4.61,1.5,6.77
	c0.74,1.96,1.89,3.68,2.86,5.54c0.31,0.63,0.17,1.38,0.53,2c0.36,0.61,1.07,0.85,1.46,1.45c0.95,1.53,1.69,3.16,2.82,4.56
	c1.67,2.08,3.84,3.71,5.85,5.51c1.96,1.77,3.75,3.65,6.01,5.09c0.38,0.26,0.64,0.66,1.05,0.9l2201.16,1318.03
	c7.73,4.63,16.42,6.92,25.11,6.92c8.69,0,17.38-2.29,25.11-6.92l2201.07-1318.03c0.41-0.24,0.67-0.64,1.05-0.9
	c2.27-1.44,4.06-3.32,6.02-5.09c2-1.81,4.18-3.43,5.85-5.51c1.12-1.41,1.86-3.04,2.82-4.56c0.38-0.6,1.1-0.84,1.46-1.45
	c0.36-0.62,0.21-1.37,0.53-2c0.98-1.86,2.12-3.57,2.86-5.54c0.81-2.16,1-4.49,1.5-6.77c0.62-2.89,1.36-5.68,1.46-8.66
	c0-0.51,0.24-0.96,0.24-1.47V1415.18z M2250.05,231.68l2116.38,3665.84H133.57L2250.05,231.68z M4402.23,1443.3v2320.65
	L2384.28,268.58L4402.23,1443.3z M97.77,1443.3L2115.81,268.58L97.77,3763.95V1443.3z M2250.05,5207.43L225.7,3995.29h4048.6
	L2250.05,5207.43z"/>
</svg>
